Patient4_TMGait_0pt4_03_left_33_GRF.mot
version=1
nRows=39
nColumns=19
inDegrees=no
endheader
time	F1x	F1y	F1z	M1x	M1y	M1z	F2x	F2y	F2z	M2x	M2y	M2z	EC1x	EC1y	EC1z	EC2x	EC2y	EC2z
43.55	-10.7952	-3.9189	-3.4858	0.7503	0.16356	-1.2555	-18.0706	778.074	-74.3301	302.8224	88.0877	878.3666	-0.0592	0.0182	-0.0073	-0.0462	0.0165	0.9585
43.5638	-7.2705	-2.3518	-2.2747	0.4094	0.02363	-0.45845	-19.7869	769.4054	-71.6551	299.2264	86.2734	865.4475	-0.0592	0.0182	-0.0073	-0.0462	0.0165	0.9585
43.5776	-4.3061	-0.95177	-1.2588	0.097545	-0.092844	0.29902	-20.4977	760.2943	-69.2102	295.3503	84.0853	851.6108	-0.0592	0.0182	-0.0073	-0.0462	0.0165	0.9585
43.5914	-2.0701	0.17899	-0.49512	-0.1601	-0.17795	0.94935	-20.1372	751.6252	-67.1504	291.5489	81.6494	837.9811	-0.0592	0.0182	-0.0073	-0.0462	0.0165	0.9585
43.6051	-0.54393	1.0131	0.03799	-0.35502	-0.24477	1.4552	-18.8494	744.2686	-65.5181	288.1925	79.0971	825.634	-0.0592	0.0182	-0.0073	-0.0462	0.0165	0.9585
43.6189	0.37351	1.5724	0.3722	-0.48994	-0.29585	1.812	-16.8641	738.9368	-64.281	285.5973	76.5374	815.4259	-0.0592	0.0182	-0.0073	-0.0462	0.0165	0.9585
43.6327	0.82609	1.8793	0.57021	-0.566	-0.3528	2.0038	-14.4231	736.0542	-63.3852	283.9653	74.0627	807.8553	-0.0592	0.0182	-0.0073	-0.0462	0.0165	0.9585
43.6465	0.95634	1.9578	0.67178	-0.58458	-0.41891	2.0197	-11.7329	735.7209	-62.7487	283.3676	71.717	803.041	-0.0592	0.0182	-0.0073	-0.0462	0.0165	0.9585
43.6603	0.87252	1.8096	0.72214	-0.53831	-0.50893	1.8299	-8.935	737.7134	-62.2902	283.7424	69.5088	800.7321	-0.0592	0.0182	-0.0073	-0.0462	0.0165	0.9585
43.6741	0.67444	1.4037	0.74702	-0.411	-0.61978	1.3628	-6.1054	741.524	-61.9192	284.9044	67.4026	800.3619	-0.0592	0.0182	-0.0073	-0.0462	0.0165	0.9585
43.6879	0.41739	0.70125	0.76913	-0.18415	-0.75244	0.55512	-3.2768	746.3975	-61.5634	286.5608	65.3538	801.1071	-0.0592	0.0182	-0.0073	-0.0462	0.0165	0.9585
43.7016	0.15636	-0.33938	0.80083	0.16081	-0.8966	-0.66641	-0.46439	751.4137	-61.168	288.3463	63.3199	801.9878	-0.0592	0.0182	-0.0073	-0.0462	0.0165	0.9585
43.7154	-0.058108	-1.7311	0.83599	0.63114	-1.0246	-2.3317	2.3157	755.6382	-60.7039	289.8807	61.2792	802.0409	-0.0592	0.0182	-0.0073	-0.0462	0.0165	0.9585
43.7292	-0.18272	-3.4316	0.86311	1.2113	-1.1074	-4.38	5.0652	758.2596	-60.1724	290.8277	59.2349	800.4546	-0.0592	0.0182	-0.0073	-0.0462	0.0165	0.9585
43.743	-0.1433	-5.2841	0.84742	1.8418	-1.0829	-6.6193	7.7774	758.693	-59.6113	290.9376	57.2263	796.6713	-0.0592	0.0182	-0.0073	-0.0462	0.0165	0.9585
43.7568	0.13418	-6.9517	0.74751	2.4047	-0.87411	-8.6242	10.4487	756.6517	-59.1009	290.0753	55.3324	790.4541	-0.0592	0.0182	-0.0073	-0.0462	0.0165	0.9585
43.7706	0.75413	-7.8592	0.49981	2.7027	-0.36986	-9.703	13.0773	752.1985	-58.7382	288.2457	53.6446	781.9321	-0.0592	0.0182	-0.0073	-0.0462	0.0165	0.9585
43.7844	1.8209	-7.1207	0.033763	2.4357	0.55114	-8.7994	15.6527	745.7432	-58.6226	285.5963	52.259	771.5895	-0.0592	0.0182	-0.0073	-0.0462	0.0165	0.9585
43.7981	3.4192	-3.5118	-0.73135	1.1912	2.009	-4.448	18.1726	737.9547	-58.8051	282.3856	51.2222	760.1482	-0.0592	0.0182	-0.0073	-0.0462	0.0165	0.9585
43.8119	5.5846	4.4776	-1.8582	-1.5409	4.0823	5.1614	20.6088	729.5869	-59.2865	278.9094	50.5357	748.405	-0.0592	0.0182	-0.0073	-0.0462	0.0165	0.9585
43.8257	8.2263	18.5138	-3.363	-6.3233	6.7547	22.0351	22.8931	721.196	-59.9947	275.3916	50.1468	736.9609	-0.0592	0.0182	-0.0073	-0.0462	0.0165	0.9585
43.8395	11.0747	40.1149	-5.1718	-13.6669	9.8444	47.9925	24.894	712.8644	-60.7932	271.8758	49.9671	725.9479	-0.0592	0.0182	-0.0073	-0.0462	0.0165	0.9585
43.8533	13.5622	70.1147	-7.0623	-23.8469	12.8962	84.0379	26.4203	704.0553	-61.4602	268.1677	49.8521	714.8816	-0.0592	0.0182	-0.0073	-0.0462	0.0165	0.9585
43.8671	14.732	107.8624	-8.612	-36.6319	15.0801	129.3915	27.2889	693.6574	-61.7383	263.8536	49.6248	702.6886	-0.0592	0.0182	-0.0073	-0.0462	0.0165	0.9585
43.8809	13.3924	150.3644	-9.1459	-50.9847	15.1931	180.4672	27.3749	680.2633	-61.3764	258.4081	49.0982	687.978	-0.0592	0.0182	-0.0073	-0.0462	0.0165	0.9585
43.8946	9.3646	192.4088	-7.7985	-65.0905	12.1518	231.0114	26.6695	662.6125	-60.2005	251.367	48.1205	669.4601	-0.0592	0.0182	-0.0073	-0.0462	0.0165	0.9585
43.9084	4.0312	228.9583	-4.2102	-77.2247	6.0719	274.8421	25.334	640.0703	-58.1992	242.5068	46.6346	646.4049	-0.0592	0.0182	-0.0073	-0.0462	0.0165	0.9585
43.9222	-1.3203	258.5582	0.77453	-86.9327	-1.6266	309.9778	23.6518	612.8484	-55.5508	231.9152	44.7152	618.8899	-0.0592	0.0182	-0.0073	-0.0462	0.0165	0.9585
43.936	-6.0798	283.1655	6.5521	-94.9106	-9.9889	338.6836	21.9838	581.6578	-52.5506	219.868	42.5079	587.4765	-0.0592	0.0182	-0.0073	-0.0462	0.0165	0.9585
43.9498	-10.039	305.9199	12.3277	-102.2709	-18.0399	364.7074	20.6132	547.3575	-49.3816	206.6961	40.0663	552.9176	-0.0592	0.0182	-0.0073	-0.0462	0.0165	0.9585
43.9636	-13.2472	329.5305	17.7226	-109.9599	-25.3321	391.3623	19.7228	510.682	-46.052	192.6862	37.3152	515.8905	-0.0592	0.0182	-0.0073	-0.0462	0.0165	0.9585
43.9774	-15.7042	355.5334	22.3077	-118.5232	-31.3978	420.4508	19.3447	472.1611	-42.4186	178.049	34.0916	476.9183	-0.0592	0.0182	-0.0073	-0.0462	0.0165	0.9585
43.9911	-17.4325	384.3359	26.0242	-128.0948	-36.1742	452.4782	19.3464	432.1042	-38.3638	162.9033	30.3125	436.346	-0.0592	0.0182	-0.0073	-0.0462	0.0165	0.9585
44.0049	-18.4588	415.6129	28.9254	-138.5433	-39.7529	487.0916	19.5074	390.6862	-33.8767	147.3047	26.0355	394.3777	-0.0592	0.0182	-0.0073	-0.0462	0.0165	0.9585
44.0187	-18.7994	448.7315	31.3279	-149.6154	-42.5052	523.5828	19.5127	348.0923	-29.1015	131.2987	21.5011	351.2492	-0.0592	0.0182	-0.0073	-0.0462	0.0165	0.9585
44.0325	-18.5549	483.017	33.5983	-161.039	-44.8829	561.2027	19.0397	304.6362	-24.2556	114.9793	17.0286	307.3177	-0.0592	0.0182	-0.0073	-0.0462	0.0165	0.9585
44.0463	-17.8969	517.8869	36.0726	-172.5856	-47.3206	599.2755	17.8364	260.9238	-19.5822	98.5537	12.9462	263.2201	-0.0592	0.0182	-0.0073	-0.0462	0.0165	0.9585
44.0601	-17.0804	553.1289	38.989	-184.1557	-50.1613	637.5876	15.7883	217.9449	-15.3014	82.3778	9.5174	219.9614	-0.0592	0.0182	-0.0073	-0.0462	0.0165	0.9585
44.0739	-16.2869	588.8581	42.3508	-195.7771	-53.4673	676.282	12.9849	176.9636	-11.57	66.9242	6.8763	178.7786	-0.0592	0.0182	-0.0073	-0.0462	0.0165	0.9585
